<svg width="104" height="104" viewBox="0 0 104 104" fill="none" xmlns="http://www.w3.org/2000/svg">
<path d="M94 0C98.714 0 101.071 0.000378469 102.535 1.46484C104 2.92931 104 5.28596 104 10V45.7598H55.7598C51.0457 45.7598 48.6891 45.7601 47.2246 47.2246C45.7601 48.6891 45.7598 51.0457 45.7598 55.7598V104H10C5.28596 104 2.92931 104 1.46484 102.535C0.000378469 101.071 0 98.714 0 94V10C0 5.28595 0.000377679 2.92931 1.46484 1.46484C2.92931 0.000377679 5.28595 0 10 0H94ZM104 104H94C98.714 104 101.071 104 102.535 102.535C104 101.071 104 98.714 104 94V104Z" fill="#BFDBF7"/>
<path d="M49.9219 59.9199C49.9219 55.2059 49.9219 52.8489 51.3863 51.3844C52.8508 49.9199 55.2078 49.9199 59.9219 49.9199H104.002V104H49.9219V59.9199Z" fill="#F9F9F9"/>
</svg>
